<svg width="73" height="72" viewBox="0 0 73 72" fill="none" xmlns="http://www.w3.org/2000/svg">
<rect x="1.16675" y="0.5" width="71" height="71" rx="11.5" fill="#141414"/>
<rect x="1.16675" y="0.5" width="71" height="71" rx="11.5" stroke="#1F1F1F"/>
<g clip-path="url(#clip0_1_385)">
<g filter="url(#filter0_b_1_385)">
<mask id="path-2-inside-1_1_385" fill="white">
<path fill-rule="evenodd" clip-rule="evenodd" d="M35.9782 28.5942C36.2698 28.593 36.561 28.5918 36.851 28.5918C37.1511 28.5918 37.4524 28.593 37.7545 28.5942C38.361 28.5965 38.9706 28.5988 39.5801 28.5918C40.5248 28.5709 41.0602 28.0358 41.0707 27.0811C41.0812 26.2418 41.0812 25.4025 41.0707 24.5632C41.0707 23.5665 40.5144 23 39.5172 23H34.2163C33.2296 23.0105 32.6838 23.5665 32.6733 24.5737V27.0391C32.6733 28.0463 33.2086 28.5813 34.2268 28.5918C34.808 28.5988 35.3939 28.5965 35.9782 28.5942ZM47.7781 31.4035H36.8615H25.9974C24.003 31.4035 22.9009 32.5051 22.8799 34.5194C22.8694 35.4007 22.67 35.6 21.7987 35.6C21.7563 35.6 21.7152 35.5988 21.6743 35.5976C21.5939 35.5953 21.5149 35.593 21.4313 35.6C20.6546 35.6525 20.0878 36.198 20.0773 36.9848C20.0668 38.8523 20.0668 40.7302 20.0878 42.5977C20.0878 43.4055 20.6651 43.951 21.4838 43.993H22.0087C22.6175 44.014 22.8589 44.2448 22.8904 44.8533V45.3254C22.9219 47.025 24.087 48.179 25.7875 48.1895C27.1521 48.2 28.5166 48.2 29.8812 48.1895C31.1093 48.1895 32.222 47.8223 33.2087 47.0984C33.5603 46.8361 33.9093 46.5739 34.2583 46.3116C34.6073 46.0493 34.9564 45.787 35.308 45.5247C36.4102 44.7064 37.3759 44.7064 38.478 45.5352C38.792 45.7659 39.1039 46.0007 39.4164 46.236C39.8145 46.5356 40.2136 46.836 40.6193 47.1299C41.3436 47.6649 42.1519 48.0636 43.0651 48.1056C44.4337 48.1698 45.8104 48.1779 47.1881 48.1859C47.3847 48.187 47.5814 48.1882 47.7781 48.1895C49.7095 48.2 50.8536 47.0669 50.8641 45.147C50.8746 44.1609 51.0426 43.993 52.0293 43.993C53.1314 43.993 53.6773 43.4579 53.6773 42.3669V37.2261C53.6773 36.135 53.1314 35.6 52.0293 35.6C51.0426 35.5895 50.8746 35.4321 50.8641 34.446C50.8432 32.5261 49.7095 31.4035 47.7781 31.4035Z"/>
</mask>
<path fill-rule="evenodd" clip-rule="evenodd" d="M35.9782 28.5942C36.2698 28.593 36.561 28.5918 36.851 28.5918C37.1511 28.5918 37.4524 28.593 37.7545 28.5942C38.361 28.5965 38.9706 28.5988 39.5801 28.5918C40.5248 28.5709 41.0602 28.0358 41.0707 27.0811C41.0812 26.2418 41.0812 25.4025 41.0707 24.5632C41.0707 23.5665 40.5144 23 39.5172 23H34.2163C33.2296 23.0105 32.6838 23.5665 32.6733 24.5737V27.0391C32.6733 28.0463 33.2086 28.5813 34.2268 28.5918C34.808 28.5988 35.3939 28.5965 35.9782 28.5942ZM47.7781 31.4035H36.8615H25.9974C24.003 31.4035 22.9009 32.5051 22.8799 34.5194C22.8694 35.4007 22.67 35.6 21.7987 35.6C21.7563 35.6 21.7152 35.5988 21.6743 35.5976C21.5939 35.5953 21.5149 35.593 21.4313 35.6C20.6546 35.6525 20.0878 36.198 20.0773 36.9848C20.0668 38.8523 20.0668 40.7302 20.0878 42.5977C20.0878 43.4055 20.6651 43.951 21.4838 43.993H22.0087C22.6175 44.014 22.8589 44.2448 22.8904 44.8533V45.3254C22.9219 47.025 24.087 48.179 25.7875 48.1895C27.1521 48.2 28.5166 48.2 29.8812 48.1895C31.1093 48.1895 32.222 47.8223 33.2087 47.0984C33.5603 46.8361 33.9093 46.5739 34.2583 46.3116C34.6073 46.0493 34.9564 45.787 35.308 45.5247C36.4102 44.7064 37.3759 44.7064 38.478 45.5352C38.792 45.7659 39.1039 46.0007 39.4164 46.236C39.8145 46.5356 40.2136 46.836 40.6193 47.1299C41.3436 47.6649 42.1519 48.0636 43.0651 48.1056C44.4337 48.1698 45.8104 48.1779 47.1881 48.1859C47.3847 48.187 47.5814 48.1882 47.7781 48.1895C49.7095 48.2 50.8536 47.0669 50.8641 45.147C50.8746 44.1609 51.0426 43.993 52.0293 43.993C53.1314 43.993 53.6773 43.4579 53.6773 42.3669V37.2261C53.6773 36.135 53.1314 35.6 52.0293 35.6C51.0426 35.5895 50.8746 35.4321 50.8641 34.446C50.8432 32.5261 49.7095 31.4035 47.7781 31.4035Z" fill="#E60000"/>
<path d="M35.9782 28.5942L35.9742 27.5942H35.9742L35.9782 28.5942ZM37.7545 28.5942L37.7583 27.5942L37.7545 28.5942ZM39.5801 28.5918L39.5916 29.5918L39.6023 29.5916L39.5801 28.5918ZM41.0707 27.0811L40.0708 27.0686L40.0707 27.0701L41.0707 27.0811ZM41.0707 24.5632H40.0706L40.0708 24.5757L41.0707 24.5632ZM34.2163 23V21.9999L34.2057 22.0001L34.2163 23ZM32.6733 24.5737L31.6733 24.5633V24.5737H32.6733ZM34.2268 28.5918L34.2389 27.5919L34.2371 27.5919L34.2268 28.5918ZM22.8799 34.5194L23.8798 34.5313L23.8798 34.5298L22.8799 34.5194ZM21.6743 35.5976L21.7032 34.598L21.7032 34.598L21.6743 35.5976ZM21.4313 35.6L21.4987 36.5977L21.5065 36.5972L21.5143 36.5965L21.4313 35.6ZM20.0773 36.9848L19.0773 36.9715L19.0773 36.9792L20.0773 36.9848ZM20.0878 42.5977H21.0878L21.0877 42.5864L20.0878 42.5977ZM21.4838 43.993L21.4326 44.9917L21.4582 44.993H21.4838V43.993ZM22.0087 43.993L22.0431 42.9936L22.0259 42.993H22.0087V43.993ZM22.8904 44.8533H23.8904V44.8274L23.8891 44.8016L22.8904 44.8533ZM22.8904 45.3254H21.8904V45.3347L21.8906 45.3439L22.8904 45.3254ZM25.7875 48.1895L25.7952 47.1895L25.7937 47.1895L25.7875 48.1895ZM29.8812 48.1895V47.1895L29.8735 47.1895L29.8812 48.1895ZM33.2087 47.0984L33.8002 47.9047L33.8066 47.9L33.2087 47.0984ZM34.2583 46.3116L33.6575 45.5122L33.6575 45.5122L34.2583 46.3116ZM35.308 45.5247L34.7119 44.7218L34.7101 44.7231L35.308 45.5247ZM38.478 45.5352L37.877 46.3345L37.8858 46.341L38.478 45.5352ZM39.4164 46.236L38.8151 47.035V47.035L39.4164 46.236ZM40.6193 47.1299L41.2136 46.3255L41.2059 46.32L40.6193 47.1299ZM43.0651 48.1056L43.112 47.1067L43.111 47.1066L43.0651 48.1056ZM47.1881 48.1859L47.1823 49.1859H47.1823L47.1881 48.1859ZM47.7781 48.1895L47.7715 49.1895L47.7727 49.1895L47.7781 48.1895ZM50.8641 45.147L49.8642 45.1364L49.8642 45.1416L50.8641 45.147ZM52.0293 35.6L52.0187 36.6H52.0293V35.6ZM50.8641 34.446L51.8641 34.4353L51.8641 34.435L50.8641 34.446ZM36.851 27.5918C36.5586 27.5918 36.2655 27.593 35.9742 27.5942L35.9822 29.5942C36.2741 29.593 36.5633 29.5918 36.851 29.5918V27.5918ZM37.7583 27.5942C37.4566 27.593 37.1534 27.5918 36.851 27.5918V29.5918C37.1489 29.5918 37.4482 29.593 37.7506 29.5942L37.7583 27.5942ZM39.5687 27.5919C38.968 27.5988 38.3661 27.5965 37.7583 27.5942L37.7506 29.5942C38.3558 29.5965 38.9731 29.5989 39.5916 29.5918L39.5687 27.5919ZM40.0707 27.0701C40.0675 27.365 39.9877 27.4603 39.9652 27.483C39.9424 27.506 39.8486 27.5856 39.5579 27.5921L39.6023 29.5916C40.2564 29.5771 40.9026 29.3787 41.3863 28.8903C41.8703 28.4015 42.0634 27.7519 42.0706 27.0921L40.0707 27.0701ZM40.0708 24.5757C40.0811 25.4067 40.0811 26.2376 40.0708 27.0686L42.0706 27.0936C42.0812 26.246 42.0812 25.3983 42.0706 24.5507L40.0708 24.5757ZM39.5172 24C39.8289 24 39.9312 24.0851 39.9575 24.1116C39.9852 24.1396 40.0707 24.2467 40.0707 24.5632H42.0707C42.0707 23.883 41.878 23.2085 41.3783 22.7041C40.8771 22.1981 40.2026 22 39.5172 22V24ZM34.2163 24H39.5172V22H34.2163V24ZM33.6732 24.5841C33.6767 24.2535 33.7644 24.1422 33.7927 24.1133C33.8181 24.0874 33.917 24.0032 34.227 23.9999L34.2057 22.0001C33.5289 22.0073 32.8616 22.2064 32.3648 22.7129C31.8709 23.2165 31.6804 23.8867 31.6734 24.5633L33.6732 24.5841ZM33.6733 27.0391V24.5737H31.6733V27.0391H33.6733ZM34.2371 27.5919C33.8928 27.5883 33.7926 27.4993 33.7752 27.4819C33.7595 27.4663 33.6733 27.3722 33.6733 27.0391H31.6733C31.6733 27.7132 31.8547 28.3902 32.3613 28.8965C32.8661 29.4011 33.5426 29.5848 34.2165 29.5918L34.2371 27.5919ZM35.9742 27.5942C35.3885 27.5965 34.8107 27.5988 34.2389 27.5919L34.2148 29.5918C34.8053 29.5989 35.3993 29.5965 35.9822 29.5942L35.9742 27.5942ZM36.8615 32.4035H47.7781V30.4035H36.8615V32.4035ZM25.9974 32.4035H36.8615V30.4035H25.9974V32.4035ZM23.8798 34.5298C23.8885 33.6975 24.1167 33.2021 24.4056 32.9134C24.693 32.6261 25.1805 32.4035 25.9974 32.4035V30.4035C24.82 30.4035 23.7592 30.7317 22.9917 31.4988C22.2257 32.2644 21.8923 33.3269 21.8799 34.509L23.8798 34.5298ZM21.7987 36.6C22.2113 36.6 22.8861 36.5801 23.369 36.0975C23.8478 35.6189 23.8749 34.9463 23.8798 34.5313L21.88 34.5075C21.8789 34.6003 21.8754 34.6723 21.8703 34.7283C21.8651 34.7849 21.8592 34.8161 21.856 34.8295C21.8529 34.8425 21.8548 34.8285 21.8695 34.7993C21.8854 34.7676 21.9128 34.7252 21.9552 34.6829C21.9976 34.6405 22.0407 34.6125 22.0742 34.5958C22.1051 34.5804 22.1209 34.5779 22.11 34.5804C22.0985 34.5831 22.0692 34.5885 22.0144 34.5929C21.9601 34.5973 21.8899 34.6 21.7987 34.6V36.6ZM21.6455 36.5972C21.6843 36.5983 21.7396 36.6 21.7987 36.6V34.6C21.7731 34.6 21.7461 34.5993 21.7032 34.598L21.6455 36.5972ZM21.5143 36.5965C21.5336 36.5949 21.5579 36.5947 21.6455 36.5972L21.7032 34.598C21.6298 34.5959 21.4963 34.5911 21.3483 34.6034L21.5143 36.5965ZM21.0772 36.9982C21.0791 36.852 21.1276 36.7709 21.1758 36.7224C21.2282 36.6697 21.3282 36.6092 21.4987 36.5977L21.364 34.6023C20.1125 34.6868 19.0954 35.6197 19.0774 36.9715L21.0772 36.9982ZM21.0877 42.5864C21.0668 40.7263 21.0668 38.8543 21.0773 36.9905L19.0773 36.9792C19.0668 38.8502 19.0668 40.7341 19.0878 42.6089L21.0877 42.5864ZM21.535 42.9943C21.3352 42.9841 21.2289 42.9177 21.18 42.8696C21.137 42.8274 21.0878 42.7517 21.0878 42.5977H19.0878C19.0878 43.2515 19.3271 43.8525 19.7776 44.2955C20.222 44.7326 20.8137 44.96 21.4326 44.9917L21.535 42.9943ZM22.0087 42.993H21.4838V44.993H22.0087V42.993ZM23.8891 44.8016C23.8684 44.4027 23.7721 43.8832 23.3628 43.4856C22.9561 43.0905 22.4367 43.0072 22.0431 42.9936L21.9742 44.9924C22.0206 44.994 22.0534 44.9973 22.0752 45.0005C22.097 45.0037 22.1038 45.0062 22.0996 45.0049C22.095 45.0034 22.0777 44.9975 22.0528 44.9834C22.0272 44.9689 21.998 44.948 21.9692 44.9201C21.9404 44.8921 21.9184 44.8631 21.9025 44.8369C21.8871 44.8115 21.8803 44.7931 21.8782 44.7871C21.8763 44.7816 21.8787 44.787 21.8821 44.8075C21.8856 44.8279 21.8894 44.8595 21.8917 44.905L23.8891 44.8016ZM23.8904 45.3254V44.8533H21.8904V45.3254H23.8904ZM25.7937 47.1895C25.1739 47.1857 24.7177 46.978 24.4163 46.6799C24.1148 46.3817 23.9017 45.927 23.8902 45.3069L21.8906 45.3439C21.9106 46.4234 22.2958 47.3955 23.0098 48.1018C23.724 48.8083 24.7006 49.1828 25.7813 49.1895L25.7937 47.1895ZM29.8735 47.1895C28.5141 47.2 27.1546 47.2 25.7952 47.1895L25.7798 49.1895C27.1495 49.2 28.5192 49.2 29.8889 49.1895L29.8735 47.1895ZM32.6171 46.2921C31.801 46.8909 30.8954 47.1895 29.8812 47.1895V49.1895C31.3233 49.1895 32.6429 48.7537 33.8002 47.9047L32.6171 46.2921ZM33.6575 45.5122C33.3083 45.7746 32.9607 46.0358 32.6108 46.2968L33.8066 47.9C34.1599 47.6365 34.5103 47.3731 34.859 47.111L33.6575 45.5122ZM34.7101 44.7231C34.3568 44.9867 34.0063 45.2501 33.6575 45.5122L34.859 47.111C35.2083 46.8486 35.5559 46.5873 35.9059 46.3263L34.7101 44.7231ZM39.079 44.736C38.4189 44.2396 37.6963 43.9143 36.8955 43.9123C36.0949 43.9103 35.372 44.2317 34.7119 44.7218L35.9041 46.3276C36.3462 45.9994 36.6572 45.9117 36.8905 45.9123C37.1236 45.9129 37.435 46.002 37.877 46.3345L39.079 44.736ZM40.0178 45.437C39.706 45.2023 39.3895 44.9641 39.0702 44.7294L37.8858 46.341C38.1944 46.5678 38.5017 46.7991 38.8151 47.035L40.0178 45.437ZM41.2059 46.32C40.8089 46.0324 40.4171 45.7376 40.0178 45.437L38.8151 47.035C39.2119 47.3337 39.6184 47.6396 40.0328 47.9398L41.2059 46.32ZM43.111 47.1066C42.4694 47.0771 41.8503 46.796 41.2135 46.3256L40.0252 47.9342C40.837 48.5339 41.8343 49.0501 43.0192 49.1045L43.111 47.1066ZM47.1939 47.1859C45.8127 47.1779 44.4567 47.1698 43.112 47.1067L43.0182 49.1045C44.4108 49.1699 45.8081 49.1779 47.1823 49.1859L47.1939 47.1859ZM47.7848 47.1895C47.5876 47.1882 47.3905 47.1871 47.1939 47.1859L47.1823 49.1859C47.379 49.187 47.5753 49.1882 47.7715 49.1895L47.7848 47.1895ZM49.8642 45.1416C49.86 45.9041 49.6352 46.3881 49.339 46.6805C49.0425 46.9731 48.5531 47.1937 47.7835 47.1895L47.7727 49.1895C48.9345 49.1958 49.9829 48.8551 50.744 48.1039C51.5053 47.3524 51.8578 46.3099 51.8641 45.1525L49.8642 45.1416ZM52.0293 42.993C51.769 42.993 51.4914 43.0027 51.235 43.0543C50.9677 43.1082 50.6466 43.2223 50.3765 43.4901C50.1066 43.7577 49.9898 44.0776 49.9335 44.3439C49.8795 44.5994 49.867 44.8765 49.8642 45.1364L51.8641 45.1577C51.8653 45.0469 51.8686 44.9598 51.8739 44.8901C51.8792 44.8198 51.8858 44.7786 51.8903 44.7575C51.8993 44.7149 51.888 44.8079 51.7848 44.9103C51.6813 45.0128 51.5879 45.0234 51.6299 45.015C51.6508 45.0107 51.6918 45.0046 51.762 45C51.8316 44.9954 51.9186 44.993 52.0293 44.993V42.993ZM52.6773 42.3669C52.6773 42.7581 52.5802 42.8615 52.5648 42.8767C52.5465 42.8947 52.4336 42.993 52.0293 42.993V44.993C52.7271 44.993 53.4382 44.8238 53.9684 44.3015C54.5014 43.7764 54.6773 43.0667 54.6773 42.3669H52.6773ZM52.6773 37.2261V42.3669H54.6773V37.2261H52.6773ZM52.0293 36.6C52.4336 36.6 52.5465 36.6983 52.5648 36.7163C52.5802 36.7315 52.6773 36.8349 52.6773 37.2261H54.6773C54.6773 36.5263 54.5014 35.8166 53.9684 35.2915C53.4382 34.7692 52.7271 34.6 52.0293 34.6V36.6ZM49.8642 34.4566C49.867 34.7163 49.8795 34.9933 49.9337 35.2487C49.9904 35.5157 50.1083 35.8351 50.3794 36.1017C50.6491 36.3671 50.9687 36.4798 51.232 36.5336C51.4853 36.5854 51.7606 36.5972 52.0187 36.5999L52.0399 34.6001C51.9282 34.5989 51.8401 34.5957 51.7692 34.5905C51.6977 34.5853 51.6553 34.5788 51.6329 34.5742C51.5869 34.5648 51.6788 34.5745 51.7819 34.676C51.8864 34.7787 51.8986 34.8732 51.89 34.833C51.8857 34.8127 51.8792 34.7722 51.8739 34.7022C51.8686 34.6329 51.8653 34.5461 51.8641 34.4353L49.8642 34.4566ZM47.7781 32.4035C48.5509 32.4035 49.0393 32.6245 49.335 32.9165C49.6306 33.2082 49.8558 33.6911 49.8642 34.4569L51.8641 34.435C51.8515 33.2809 51.4994 32.2426 50.74 31.4931C49.9809 30.7437 48.9367 30.4035 47.7781 30.4035V32.4035Z" fill="#E60000" mask="url(#path-2-inside-1_1_385)"/>
</g>
</g>
<defs>
<filter id="filter0_b_1_385" x="8.07037" y="11" width="57.6069" height="49.1974" filterUnits="userSpaceOnUse" color-interpolation-filters="sRGB">
<feFlood flood-opacity="0" result="BackgroundImageFix"/>
<feGaussianBlur in="BackgroundImageFix" stdDeviation="6"/>
<feComposite in2="SourceAlpha" operator="in" result="effect1_backgroundBlur_1_385"/>
<feBlend mode="normal" in="SourceGraphic" in2="effect1_backgroundBlur_1_385" result="shape"/>
</filter>
<clipPath id="clip0_1_385">
<rect width="33.6" height="25.2" fill="white" transform="translate(20.0668 23)"/>
</clipPath>
</defs>
</svg>
