<svg width="72" height="72" viewBox="0 0 72 72" fill="none" xmlns="http://www.w3.org/2000/svg">
<rect x="0.5" y="0.5" width="71" height="71" rx="11.5" fill="#141414"/>
<rect x="0.5" y="0.5" width="71" height="71" rx="11.5" stroke="#1F1F1F"/>
<g clip-path="url(#clip0_1_365)">
<g filter="url(#filter0_b_1_365)">
<mask id="path-2-inside-1_1_365" fill="white">
<path fill-rule="evenodd" clip-rule="evenodd" d="M49.1366 22.2H36.1305H23.1368C21.8178 22.2 21.4515 22.5655 21.4515 23.8445V37.61C21.4515 38.8769 21.83 39.2545 23.0757 39.2545H49.1366C50.3822 39.2545 50.7608 38.8769 50.7608 37.61V23.8445C50.7608 22.5776 50.3822 22.2 49.1366 22.2ZM19.3754 49H36.0451H52.8491C53.1422 49 53.4597 48.9878 53.7406 48.8904C54.3878 48.6711 54.5832 48.1351 54.2535 47.5382C53.0935 45.419 51.9214 43.3119 50.7493 41.2049L50.7486 41.2036C50.4677 40.7164 50.0647 40.4727 49.5029 40.4727H22.6971C22.1354 40.4727 21.7323 40.7164 21.4637 41.2036L21.4637 41.2037C20.2913 43.3111 19.1189 45.4186 17.9588 47.5382C17.629 48.1351 17.8367 48.6711 18.4839 48.8904C18.7526 48.9878 19.0701 49 19.3754 49ZM36.8633 46.5663C36.6068 46.565 36.3504 46.5636 36.0939 46.5636C35.8379 46.5636 35.5819 46.565 35.3254 46.5663C34.8112 46.569 34.2951 46.5718 33.7736 46.5636C32.992 46.5515 32.4547 46.0642 32.4425 45.3698C32.4302 44.6511 32.9798 44.1395 33.798 44.1395C35.3368 44.1273 36.8877 44.1273 38.4264 44.1395C39.208 44.1516 39.7454 44.6389 39.7576 45.3333C39.7698 46.0398 39.2202 46.5515 38.402 46.5636C37.8891 46.5718 37.3762 46.569 36.8633 46.5663Z"/>
</mask>
<path fill-rule="evenodd" clip-rule="evenodd" d="M49.1366 22.2H36.1305H23.1368C21.8178 22.2 21.4515 22.5655 21.4515 23.8445V37.61C21.4515 38.8769 21.83 39.2545 23.0757 39.2545H49.1366C50.3822 39.2545 50.7608 38.8769 50.7608 37.61V23.8445C50.7608 22.5776 50.3822 22.2 49.1366 22.2ZM19.3754 49H36.0451H52.8491C53.1422 49 53.4597 48.9878 53.7406 48.8904C54.3878 48.6711 54.5832 48.1351 54.2535 47.5382C53.0935 45.419 51.9214 43.3119 50.7493 41.2049L50.7486 41.2036C50.4677 40.7164 50.0647 40.4727 49.5029 40.4727H22.6971C22.1354 40.4727 21.7323 40.7164 21.4637 41.2036L21.4637 41.2037C20.2913 43.3111 19.1189 45.4186 17.9588 47.5382C17.629 48.1351 17.8367 48.6711 18.4839 48.8904C18.7526 48.9878 19.0701 49 19.3754 49ZM36.8633 46.5663C36.6068 46.565 36.3504 46.5636 36.0939 46.5636C35.8379 46.5636 35.5819 46.565 35.3254 46.5663C34.8112 46.569 34.2951 46.5718 33.7736 46.5636C32.992 46.5515 32.4547 46.0642 32.4425 45.3698C32.4302 44.6511 32.9798 44.1395 33.798 44.1395C35.3368 44.1273 36.8877 44.1273 38.4264 44.1395C39.208 44.1516 39.7454 44.6389 39.7576 45.3333C39.7698 46.0398 39.2202 46.5515 38.402 46.5636C37.8891 46.5718 37.3762 46.569 36.8633 46.5663Z" fill="#E60000"/>
<path d="M53.7406 48.8904L53.4197 47.9432L53.4128 47.9456L53.7406 48.8904ZM54.2535 47.5382L53.3763 48.0183L53.3781 48.0217L54.2535 47.5382ZM50.7493 41.2049L51.6232 40.7188L51.6223 40.7173L50.7493 41.2049ZM50.7486 41.2036L51.6217 40.7159L51.6149 40.7042L50.7486 41.2036ZM21.4637 41.2036L22.3386 41.688L22.3394 41.6865L21.4637 41.2036ZM21.4637 41.2037L22.3375 41.6898L22.3386 41.688L21.4637 41.2037ZM17.9588 47.5382L18.8341 48.0217L18.836 48.0183L17.9588 47.5382ZM18.4839 48.8904L18.8249 47.9503L18.8149 47.9467L18.8048 47.9432L18.4839 48.8904ZM36.8633 46.5663L36.858 47.5663H36.858L36.8633 46.5663ZM35.3254 46.5663L35.3202 45.5663H35.3202L35.3254 46.5663ZM33.7736 46.5636L33.7892 45.5638H33.7892L33.7736 46.5636ZM32.4425 45.3698L31.4426 45.3868L31.4426 45.3874L32.4425 45.3698ZM33.798 44.1395V45.1395L33.8059 45.1394L33.798 44.1395ZM38.4264 44.1395L38.442 43.1395L38.4344 43.1395L38.4264 44.1395ZM39.7576 45.3333L40.7574 45.316L40.7574 45.3157L39.7576 45.3333ZM38.402 46.5636L38.3871 45.5637L38.3862 45.5638L38.402 46.5636ZM36.1305 23.2H49.1366V21.2H36.1305V23.2ZM23.1368 23.2H36.1305V21.2H23.1368V23.2ZM22.4515 23.8445C22.4515 23.5622 22.4728 23.3943 22.4979 23.2965C22.52 23.2106 22.5333 23.2237 22.4993 23.2569C22.4667 23.2889 22.4589 23.2721 22.5566 23.248C22.6642 23.2214 22.8433 23.2 23.1368 23.2V21.2C22.462 21.2 21.6657 21.2738 21.0997 21.8283C20.5267 22.3897 20.4515 23.1844 20.4515 23.8445H22.4515ZM22.4515 37.61V23.8445H20.4515V37.61H22.4515ZM23.0757 38.2545C22.8054 38.2545 22.6437 38.233 22.5499 38.2084C22.467 38.1867 22.4768 38.1732 22.507 38.2037C22.5366 38.2336 22.5213 38.2408 22.4985 38.1522C22.4731 38.0536 22.4515 37.8862 22.4515 37.61H20.4515C20.4515 38.2745 20.5337 39.0535 21.086 39.6111C21.6413 40.1718 22.4192 40.2545 23.0757 40.2545V38.2545ZM49.1366 38.2545H23.0757V40.2545H49.1366V38.2545ZM49.7608 37.61C49.7608 37.8862 49.7391 38.0536 49.7137 38.1522C49.6909 38.2408 49.6757 38.2336 49.7053 38.2037C49.7355 38.1732 49.7452 38.1867 49.6624 38.2084C49.5686 38.233 49.4069 38.2545 49.1366 38.2545V40.2545C49.793 40.2545 50.5709 40.1718 51.1263 39.6111C51.6785 39.0535 51.7608 38.2745 51.7608 37.61H49.7608ZM49.7608 23.8445V37.61H51.7608V23.8445H49.7608ZM49.1366 23.2C49.4069 23.2 49.5686 23.2216 49.6624 23.2461C49.7452 23.2679 49.7355 23.2814 49.7053 23.2509C49.6757 23.221 49.6909 23.2137 49.7137 23.3023C49.7391 23.401 49.7608 23.5683 49.7608 23.8445H51.7608C51.7608 23.18 51.6785 22.401 51.1263 21.8435C50.5709 21.2827 49.793 21.2 49.1366 21.2V23.2ZM36.0451 48H19.3754V50H36.0451V48ZM52.8491 48H36.0451V50H52.8491V48ZM53.4128 47.9456C53.3055 47.9828 53.1383 48 52.8491 48V50C53.146 50 53.6139 49.9928 54.0683 49.8351L53.4128 47.9456ZM53.3781 48.0217C53.4105 48.0804 53.4127 48.1064 53.4118 48.0997C53.4113 48.0959 53.4103 48.0844 53.4121 48.0666C53.414 48.0487 53.4186 48.0273 53.4271 48.0047C53.4356 47.9819 53.4466 47.9619 53.4582 47.9456C53.4696 47.9294 53.4796 47.9197 53.4847 47.9153C53.4944 47.9069 53.4801 47.9228 53.4197 47.9432L54.0614 49.8375C54.5886 49.6589 55.0791 49.295 55.2997 48.7071C55.5183 48.1242 55.3923 47.5318 55.1288 47.0547L53.3781 48.0217ZM49.8754 41.691C51.0478 43.7986 52.2183 45.9026 53.3763 48.0183L55.1307 47.0581C53.9688 44.9353 52.795 42.8253 51.6232 40.7188L49.8754 41.691ZM49.8755 41.6913L49.8762 41.6926L51.6223 40.7173L51.6216 40.716L49.8755 41.6913ZM49.5029 41.4727C49.6345 41.4727 49.6939 41.4996 49.7222 41.5163C49.7523 41.5341 49.8102 41.5782 49.8822 41.703L51.6149 40.7042C51.406 40.3418 51.122 40.0204 50.7399 39.7946C50.3561 39.5677 49.9331 39.4727 49.5029 39.4727V41.4727ZM22.6971 41.4727H49.5029V39.4727H22.6971V41.4727ZM22.3394 41.6865C22.4042 41.569 22.4567 41.5298 22.4822 41.5146C22.5069 41.4999 22.5648 41.4727 22.6971 41.4727V39.4727C22.2677 39.4727 21.8432 39.5674 21.4588 39.7963C21.0751 40.0248 20.7918 40.351 20.588 40.7208L22.3394 41.6865ZM22.3386 41.688L22.3386 41.688L20.5888 40.7193L20.5888 40.7194L22.3386 41.688ZM18.836 48.0183C19.9942 45.9022 21.1649 43.7978 22.3375 41.6898L20.5898 40.7175C19.4177 42.8245 18.2437 44.9349 17.0816 47.0581L18.836 48.0183ZM18.8048 47.9432C18.7434 47.9225 18.7267 47.9056 18.7337 47.9117C18.7375 47.915 18.7465 47.9235 18.7572 47.9383C18.768 47.9533 18.7787 47.9721 18.7872 47.9941C18.7958 48.0161 18.8006 48.0373 18.8028 48.0557C18.8049 48.074 18.804 48.0864 18.8033 48.0916C18.8022 48.1012 18.8031 48.0779 18.8341 48.0217L17.0834 47.0547C16.816 47.5387 16.6967 48.1354 16.9227 48.7177C17.1486 49.2998 17.6391 49.66 18.163 49.8375L18.8048 47.9432ZM19.3754 48C19.066 48 18.9103 47.9813 18.8249 47.9503L18.1429 49.8304C18.5948 49.9944 19.0741 50 19.3754 50V48ZM36.0939 47.5636C36.3473 47.5636 36.6011 47.565 36.858 47.5663L36.8686 45.5664C36.6125 45.565 36.3534 45.5636 36.0939 45.5636V47.5636ZM35.3307 47.5663C35.5876 47.565 35.841 47.5636 36.0939 47.5636V45.5636C35.8348 45.5636 35.5762 45.565 35.3202 45.5663L35.3307 47.5663ZM33.758 47.5635C34.2917 47.5718 34.8181 47.569 35.3307 47.5663L35.3202 45.5663C34.8043 45.5691 34.2986 45.5717 33.7892 45.5638L33.758 47.5635ZM31.4426 45.3874C31.4534 46.0023 31.7038 46.5639 32.1507 46.9659C32.5904 47.3615 33.1639 47.5543 33.758 47.5635L33.7892 45.5638C33.6017 45.5608 33.5158 45.5038 33.4884 45.4791C33.4681 45.4609 33.4437 45.4317 33.4423 45.3522L31.4426 45.3874ZM33.798 43.1395C33.1815 43.1395 32.5855 43.3343 32.134 43.7471C31.6747 44.1671 31.4319 44.7541 31.4426 45.3868L33.4423 45.3528C33.4415 45.3039 33.4501 45.2757 33.456 45.2616C33.4619 45.2477 33.47 45.2356 33.4836 45.2231C33.5084 45.2004 33.5963 45.1395 33.798 45.1395V43.1395ZM38.4344 43.1395C36.8903 43.1273 35.3341 43.1273 33.7901 43.1395L33.8059 45.1394C35.3394 45.1273 36.8851 45.1273 38.4185 45.1394L38.4344 43.1395ZM40.7574 45.3157C40.7466 44.7008 40.4963 44.1392 40.0494 43.7371C39.6097 43.3415 39.0362 43.1488 38.442 43.1396L38.4109 45.1393C38.5983 45.1423 38.6843 45.1993 38.7117 45.2239C38.7319 45.2421 38.7563 45.2714 38.7577 45.3509L40.7574 45.3157ZM38.4169 47.5635C39.0294 47.5544 39.6191 47.3555 40.066 46.9468C40.5213 46.5305 40.7684 45.9484 40.7574 45.316L38.7577 45.3506C38.7585 45.3939 38.7507 45.4187 38.7454 45.4313C38.7401 45.4438 38.7319 45.4567 38.7164 45.4708C38.6871 45.4977 38.5929 45.5607 38.3871 45.5637L38.4169 47.5635ZM36.858 47.5663C37.3692 47.569 37.8926 47.5718 38.4179 47.5635L38.3862 45.5638C37.8856 45.5717 37.3832 45.5691 36.8686 45.5664L36.858 47.5663Z" fill="#E60000" mask="url(#path-2-inside-1_1_365)"/>
</g>
</g>
<defs>
<filter id="filter0_b_1_365" x="5.80408" y="10.2" width="60.6071" height="50.8" filterUnits="userSpaceOnUse" color-interpolation-filters="sRGB">
<feFlood flood-opacity="0" result="BackgroundImageFix"/>
<feGaussianBlur in="BackgroundImageFix" stdDeviation="6"/>
<feComposite in2="SourceAlpha" operator="in" result="effect1_backgroundBlur_1_365"/>
<feBlend mode="normal" in="SourceGraphic" in2="effect1_backgroundBlur_1_365" result="shape"/>
</filter>
<clipPath id="clip0_1_365">
<rect width="36.6" height="26.8" fill="white" transform="translate(17.8 22.2)"/>
</clipPath>
</defs>
</svg>
